<?xml version="1.0" encoding="UTF-8" standalone="no"?>
<!DOCTYPE svg PUBLIC "-//W3C//DTD SVG 1.1//EN"
 "http://www.w3.org/Graphics/SVG/1.1/DTD/svg11.dtd">
<!-- Generated by graphviz version 2.36.0 (20140111.2315)
 -->
<!-- Title: trace Pages: 1 -->
<svg width="540pt" height="62pt"
 viewBox="0.00 0.00 540.00 62.40" xmlns="http://www.w3.org/2000/svg" xmlns:xlink="http://www.w3.org/1999/xlink">
<g id="graph0" class="graph" transform="scale(0.106846 0.106846) rotate(0) translate(4 580)">
<title>trace</title>
<polygon fill="white" stroke="none" points="-4,4 -4,-580 5050,-580 5050,4 -4,4"/>
<!-- startup -->
<g id="node1" class="node"><title>startup</title>
<text text-anchor="middle" x="45" y="-528" font-family="Microsoft Yahei" font-size="20.00">startup</text>
</g>
<!-- th_init_initgls -->
<g id="node2" class="node"><title>th_init_initgls</title>
<text text-anchor="middle" x="319" y="-528" font-family="Microsoft Yahei" font-size="20.00">th_init_initgls</text>
</g>
<!-- startup&#45;&gt;th_init_initgls -->
<g id="edge1" class="edge"><title>startup&#45;&gt;th_init_initgls</title>
<path fill="none" stroke="black" d="M90.0038,-533C128.175,-533 184.548,-533 231.687,-533"/>
<polygon fill="black" stroke="black" points="231.903,-536.5 241.903,-533 231.903,-529.5 231.903,-536.5"/>
<text text-anchor="middle" x="166" y="-536.8" font-family="Times,serif" font-size="14.00">1</text>
</g>
<!-- initgls -->
<g id="node3" class="node"><title>initgls</title>
<text text-anchor="middle" x="628" y="-553" font-family="Microsoft Yahei" font-size="20.00">initgls</text>
</g>
<!-- th_init_initgls&#45;&gt;initgls -->
<g id="edge2" class="edge"><title>th_init_initgls&#45;&gt;initgls</title>
<path fill="none" stroke="black" d="M396.282,-539.212C453.148,-543.843 529.132,-550.03 578.075,-554.016"/>
<polygon fill="black" stroke="black" points="577.841,-557.508 588.092,-554.832 578.409,-550.531 577.841,-557.508"/>
<text text-anchor="middle" x="472" y="-548.8" font-family="Times,serif" font-size="14.00">2</text>
</g>
<!-- spawn_thread -->
<g id="node5" class="node"><title>spawn_thread</title>
<text text-anchor="middle" x="628" y="-499" font-family="Microsoft Yahei" font-size="20.00">spawn_thread</text>
</g>
<!-- th_init_initgls&#45;&gt;spawn_thread -->
<g id="edge4" class="edge"><title>th_init_initgls&#45;&gt;spawn_thread</title>
<path fill="none" stroke="black" d="M396.282,-525.794C439.372,-521.724 493.439,-516.616 538.401,-512.369"/>
<polygon fill="black" stroke="black" points="538.811,-515.846 548.437,-511.421 538.152,-508.877 538.811,-515.846"/>
<text text-anchor="middle" x="472" y="-521.8" font-family="Times,serif" font-size="14.00">4</text>
</g>
<!-- init_be -->
<g id="node4" class="node"><title>init_be</title>
<text text-anchor="middle" x="931" y="-553" font-family="Microsoft Yahei" font-size="20.00">init_be</text>
</g>
<!-- initgls&#45;&gt;init_be -->
<g id="edge3" class="edge"><title>initgls&#45;&gt;init_be</title>
<path fill="none" stroke="black" d="M667.734,-558C721.169,-558 817.665,-558 877.531,-558"/>
<polygon fill="black" stroke="black" points="877.537,-561.5 887.537,-558 877.537,-554.5 877.537,-561.5"/>
<text text-anchor="middle" x="784" y="-561.8" font-family="Times,serif" font-size="14.00">3</text>
</g>
<!-- ascInd_recv -->
<g id="node6" class="node"><title>ascInd_recv</title>
<text text-anchor="middle" x="931" y="-499" font-family="Microsoft Yahei" font-size="20.00">ascInd_recv</text>
</g>
<!-- spawn_thread&#45;&gt;ascInd_recv -->
<g id="edge5" class="edge"><title>spawn_thread&#45;&gt;ascInd_recv</title>
<path fill="none" stroke="black" d="M707.691,-504C752.292,-504 807.884,-504 852.318,-504"/>
<polygon fill="black" stroke="black" points="852.488,-507.5 862.488,-504 852.488,-500.5 852.488,-507.5"/>
<text text-anchor="middle" x="784" y="-507.8" font-family="Times,serif" font-size="14.00">5</text>
</g>
<!-- listen_verify -->
<g id="node9" class="node"><title>listen_verify</title>
<text text-anchor="middle" x="931" y="-445" font-family="Microsoft Yahei" font-size="20.00">listen_verify</text>
</g>
<!-- spawn_thread&#45;&gt;listen_verify -->
<g id="edge8" class="edge"><title>spawn_thread&#45;&gt;listen_verify</title>
<path fill="none" stroke="black" d="M707.691,-489.883C751.484,-482.026 805.873,-472.269 849.892,-464.372"/>
<polygon fill="black" stroke="black" points="850.755,-467.773 859.98,-462.562 849.519,-460.883 850.755,-467.773"/>
<text text-anchor="middle" x="784" y="-479.8" font-family="Times,serif" font-size="14.00">8</text>
</g>
<!-- cmConInd_recv -->
<g id="node7" class="node"><title>cmConInd_recv</title>
<text text-anchor="middle" x="1247" y="-499" font-family="Microsoft Yahei" font-size="20.00">cmConInd_recv</text>
</g>
<!-- ascInd_recv&#45;&gt;cmConInd_recv -->
<g id="edge6" class="edge"><title>ascInd_recv&#45;&gt;cmConInd_recv</title>
<path fill="none" stroke="black" d="M999.747,-504C1043.68,-504 1101.57,-504 1150.18,-504"/>
<polygon fill="black" stroke="black" points="1150.41,-507.5 1160.41,-504 1150.41,-500.5 1150.41,-507.5"/>
<text text-anchor="middle" x="1081" y="-507.8" font-family="Times,serif" font-size="14.00">6</text>
</g>
<!-- pfConInd_recv -->
<g id="node8" class="node"><title>pfConInd_recv</title>
<text text-anchor="middle" x="1573" y="-499" font-family="Microsoft Yahei" font-size="20.00">pfConInd_recv</text>
</g>
<!-- cmConInd_recv&#45;&gt;pfConInd_recv -->
<g id="edge7" class="edge"><title>cmConInd_recv&#45;&gt;pfConInd_recv</title>
<path fill="none" stroke="black" d="M1333.55,-504C1379.23,-504 1435.42,-504 1481.79,-504"/>
<polygon fill="black" stroke="black" points="1481.82,-507.5 1491.82,-504 1481.82,-500.5 1481.82,-507.5"/>
<text text-anchor="middle" x="1413" y="-507.8" font-family="Times,serif" font-size="14.00">7</text>
</g>
<!-- ascVerify -->
<g id="node10" class="node"><title>ascVerify</title>
<text text-anchor="middle" x="1247" y="-445" font-family="Microsoft Yahei" font-size="20.00">ascVerify</text>
</g>
<!-- listen_verify&#45;&gt;ascVerify -->
<g id="edge9" class="edge"><title>listen_verify&#45;&gt;ascVerify</title>
<path fill="none" stroke="black" d="M1002.08,-450C1055.79,-450 1129.33,-450 1181.58,-450"/>
<polygon fill="black" stroke="black" points="1181.74,-453.5 1191.74,-450 1181.74,-446.5 1181.74,-453.5"/>
<text text-anchor="middle" x="1081" y="-453.8" font-family="Times,serif" font-size="14.00">9</text>
</g>
<!-- sqmain -->
<g id="node19" class="node"><title>sqmain</title>
<text text-anchor="middle" x="1247" y="-312" font-family="Microsoft Yahei" font-size="20.00">sqmain</text>
</g>
<!-- listen_verify&#45;&gt;sqmain -->
<g id="edge18" class="edge"><title>listen_verify&#45;&gt;sqmain</title>
<path fill="none" stroke="black" d="M974.674,-431.925C1031.66,-407.789 1132.52,-365.066 1193.92,-339.061"/>
<polygon fill="black" stroke="black" points="1195.58,-342.159 1203.42,-335.036 1192.85,-335.713 1195.58,-342.159"/>
<text text-anchor="middle" x="1081" y="-390.8" font-family="Times,serif" font-size="14.00">18</text>
</g>
<!-- cmConVerf -->
<g id="node11" class="node"><title>cmConVerf</title>
<text text-anchor="middle" x="1573" y="-445" font-family="Microsoft Yahei" font-size="20.00">cmConVerf</text>
</g>
<!-- ascVerify&#45;&gt;cmConVerf -->
<g id="edge10" class="edge"><title>ascVerify&#45;&gt;cmConVerf</title>
<path fill="none" stroke="black" d="M1302.23,-450C1356.13,-450 1439.15,-450 1498.86,-450"/>
<polygon fill="black" stroke="black" points="1498.98,-453.5 1508.98,-450 1498.98,-446.5 1498.98,-453.5"/>
<text text-anchor="middle" x="1413" y="-453.8" font-family="Times,serif" font-size="14.00">10</text>
</g>
<!-- chkAuth -->
<g id="node12" class="node"><title>chkAuth</title>
<text text-anchor="middle" x="1902" y="-445" font-family="Microsoft Yahei" font-size="20.00">chkAuth</text>
</g>
<!-- cmConVerf&#45;&gt;chkAuth -->
<g id="edge11" class="edge"><title>cmConVerf&#45;&gt;chkAuth</title>
<path fill="none" stroke="black" d="M1637.05,-450C1696.14,-450 1783.81,-450 1841.66,-450"/>
<polygon fill="black" stroke="black" points="1841.75,-453.5 1851.75,-450 1841.75,-446.5 1841.75,-453.5"/>
<text text-anchor="middle" x="1733" y="-453.8" font-family="Times,serif" font-size="14.00">11</text>
</g>
<!-- chkInternet -->
<g id="node13" class="node"><title>chkInternet</title>
<text text-anchor="middle" x="2233" y="-445" font-family="Microsoft Yahei" font-size="20.00">chkInternet</text>
</g>
<!-- chkAuth&#45;&gt;chkInternet -->
<g id="edge12" class="edge"><title>chkAuth&#45;&gt;chkInternet</title>
<path fill="none" stroke="black" d="M1952.25,-450C2006.08,-450 2093,-450 2155.67,-450"/>
<polygon fill="black" stroke="black" points="2155.9,-453.5 2165.9,-450 2155.9,-446.5 2155.9,-453.5"/>
<text text-anchor="middle" x="2071" y="-453.8" font-family="Times,serif" font-size="14.00">12</text>
</g>
<!-- _oschkinternet -->
<g id="node14" class="node"><title>_oschkinternet</title>
<text text-anchor="middle" x="2558" y="-445" font-family="Microsoft Yahei" font-size="20.00">_oschkinternet</text>
</g>
<!-- chkInternet&#45;&gt;_oschkinternet -->
<g id="edge13" class="edge"><title>chkInternet&#45;&gt;_oschkinternet</title>
<path fill="none" stroke="black" d="M2300.14,-450C2347.29,-450 2411.34,-450 2463.68,-450"/>
<polygon fill="black" stroke="black" points="2463.99,-453.5 2473.99,-450 2463.99,-446.5 2463.99,-453.5"/>
<text text-anchor="middle" x="2395" y="-453.8" font-family="Times,serif" font-size="14.00">13</text>
</g>
<!-- identify_authenticate -->
<g id="node15" class="node"><title>identify_authenticate</title>
<text text-anchor="middle" x="2918" y="-445" font-family="Microsoft Yahei" font-size="20.00">identify_authenticate</text>
</g>
<!-- _oschkinternet&#45;&gt;identify_authenticate -->
<g id="edge14" class="edge"><title>_oschkinternet&#45;&gt;identify_authenticate</title>
<path fill="none" stroke="black" d="M2642.03,-450C2685.9,-450 2740.68,-450 2789.78,-450"/>
<polygon fill="black" stroke="black" points="2789.84,-453.5 2799.84,-450 2789.84,-446.5 2789.84,-453.5"/>
<text text-anchor="middle" x="2721" y="-453.8" font-family="Times,serif" font-size="14.00">14</text>
</g>
<!-- os_id_auth -->
<g id="node16" class="node"><title>os_id_auth</title>
<text text-anchor="middle" x="3271" y="-445" font-family="Microsoft Yahei" font-size="20.00">os_id_auth</text>
</g>
<!-- identify_authenticate&#45;&gt;os_id_auth -->
<g id="edge15" class="edge"><title>identify_authenticate&#45;&gt;os_id_auth</title>
<path fill="none" stroke="black" d="M3036.37,-450C3089.73,-450 3151.17,-450 3197.65,-450"/>
<polygon fill="black" stroke="black" points="3197.93,-453.5 3207.93,-450 3197.93,-446.5 3197.93,-453.5"/>
<text text-anchor="middle" x="3115" y="-453.8" font-family="Times,serif" font-size="14.00">15</text>
</g>
<!-- _osgetpasswd -->
<g id="node17" class="node"><title>_osgetpasswd</title>
<text text-anchor="middle" x="3590" y="-445" font-family="Microsoft Yahei" font-size="20.00">_osgetpasswd</text>
</g>
<!-- os_id_auth&#45;&gt;_osgetpasswd -->
<g id="edge16" class="edge"><title>os_id_auth&#45;&gt;_osgetpasswd</title>
<path fill="none" stroke="black" d="M3334.25,-450C3381.51,-450 3447.15,-450 3499.96,-450"/>
<polygon fill="black" stroke="black" points="3500,-453.5 3510,-450 3500,-446.5 3500,-453.5"/>
<text text-anchor="middle" x="3427" y="-453.8" font-family="Times,serif" font-size="14.00">16</text>
</g>
<!-- _osgetpwnam -->
<g id="node18" class="node"><title>_osgetpwnam</title>
<text text-anchor="middle" x="3911" y="-445" font-family="Microsoft Yahei" font-size="20.00">_osgetpwnam</text>
</g>
<!-- _osgetpasswd&#45;&gt;_osgetpwnam -->
<g id="edge17" class="edge"><title>_osgetpasswd&#45;&gt;_osgetpwnam</title>
<path fill="none" stroke="black" d="M3670.26,-450C3716.25,-450 3774.27,-450 3821.71,-450"/>
<polygon fill="black" stroke="black" points="3821.97,-453.5 3831.97,-450 3821.97,-446.5 3821.97,-453.5"/>
<text text-anchor="middle" x="3753" y="-453.8" font-family="Times,serif" font-size="14.00">17</text>
</g>
<!-- init_sqscb -->
<g id="node20" class="node"><title>init_sqscb</title>
<text text-anchor="middle" x="1573" y="-391" font-family="Microsoft Yahei" font-size="20.00">init_sqscb</text>
</g>
<!-- sqmain&#45;&gt;init_sqscb -->
<g id="edge19" class="edge"><title>sqmain&#45;&gt;init_sqscb</title>
<path fill="none" stroke="black" d="M1292.71,-327.902C1347.34,-341.221 1440.31,-363.89 1503.86,-379.386"/>
<polygon fill="black" stroke="black" points="1503.25,-382.84 1513.8,-381.809 1504.91,-376.039 1503.25,-382.84"/>
<text text-anchor="middle" x="1413" y="-361.8" font-family="Times,serif" font-size="14.00">19</text>
</g>
<!-- sq_info -->
<g id="node23" class="node"><title>sq_info</title>
<text text-anchor="middle" x="1573" y="-337" font-family="Microsoft Yahei" font-size="20.00">sq_info</text>
</g>
<!-- sqmain&#45;&gt;sq_info -->
<g id="edge22" class="edge"><title>sqmain&#45;&gt;sq_info</title>
<path fill="none" stroke="black" d="M1292.71,-320.45C1351.58,-324.992 1454.99,-332.972 1518.11,-337.842"/>
<polygon fill="black" stroke="black" points="1518.03,-341.346 1528.27,-338.625 1518.56,-334.366 1518.03,-341.346"/>
<text text-anchor="middle" x="1413" y="-333.8" font-family="Times,serif" font-size="14.00">22</text>
</g>
<!-- sq_prepare -->
<g id="node25" class="node"><title>sq_prepare</title>
<text text-anchor="middle" x="1573" y="-283" font-family="Microsoft Yahei" font-size="20.00">sq_prepare</text>
</g>
<!-- sqmain&#45;&gt;sq_prepare -->
<g id="edge24" class="edge"><title>sqmain&#45;&gt;sq_prepare</title>
<path fill="none" stroke="black" d="M1292.71,-312.998C1345.66,-308.259 1434.64,-300.294 1497.93,-294.629"/>
<polygon fill="black" stroke="black" points="1498.61,-298.083 1508.26,-293.706 1497.98,-291.111 1498.61,-298.083"/>
<text text-anchor="middle" x="1413" y="-305.8" font-family="Times,serif" font-size="14.00">24</text>
</g>
<!-- sq_execute -->
<g id="node31" class="node"><title>sq_execute</title>
<text text-anchor="middle" x="1573" y="-229" font-family="Microsoft Yahei" font-size="20.00">sq_execute</text>
</g>
<!-- sqmain&#45;&gt;sq_execute -->
<g id="edge30" class="edge"><title>sqmain&#45;&gt;sq_execute</title>
<path fill="none" stroke="black" d="M1292.71,-305.546C1345.36,-292.059 1433.63,-269.447 1496.85,-253.252"/>
<polygon fill="black" stroke="black" points="1497.95,-256.583 1506.77,-250.711 1496.21,-249.802 1497.95,-256.583"/>
<text text-anchor="middle" x="1413" y="-278.8" font-family="Times,serif" font-size="14.00">30</text>
</g>
<!-- sq_exit -->
<g id="node43" class="node"><title>sq_exit</title>
<text text-anchor="middle" x="1573" y="-174" font-family="Microsoft Yahei" font-size="20.00">sq_exit</text>
</g>
<!-- sqmain&#45;&gt;sq_exit -->
<g id="edge42" class="edge"><title>sqmain&#45;&gt;sq_exit</title>
<path fill="none" stroke="black" d="M1285.6,-298.82C1333.15,-276.115 1417.78,-236.653 1492,-207 1500.53,-203.592 1509.66,-200.181 1518.58,-196.972"/>
<polygon fill="black" stroke="black" points="1519.89,-200.22 1528.15,-193.578 1517.55,-193.622 1519.89,-200.22"/>
<text text-anchor="middle" x="1413" y="-244.8" font-family="Times,serif" font-size="14.00">42</text>
</g>
<!-- initgls_3 -->
<g id="node21" class="node"><title>initgls_3</title>
<text text-anchor="middle" x="1902" y="-391" font-family="Microsoft Yahei" font-size="20.00">initgls_3</text>
</g>
<!-- init_sqscb&#45;&gt;initgls_3 -->
<g id="edge20" class="edge"><title>init_sqscb&#45;&gt;initgls_3</title>
<path fill="none" stroke="black" d="M1632.08,-396C1690.9,-396 1781.44,-396 1840.95,-396"/>
<polygon fill="black" stroke="black" points="1840.95,-399.5 1850.95,-396 1840.95,-392.5 1840.95,-399.5"/>
<text text-anchor="middle" x="1733" y="-399.8" font-family="Times,serif" font-size="14.00">20</text>
</g>
<!-- init_sess -->
<g id="node22" class="node"><title>init_sess</title>
<text text-anchor="middle" x="2233" y="-391" font-family="Microsoft Yahei" font-size="20.00">init_sess</text>
</g>
<!-- initgls_3&#45;&gt;init_sess -->
<g id="edge21" class="edge"><title>initgls_3&#45;&gt;init_sess</title>
<path fill="none" stroke="black" d="M1953.33,-396C2011.73,-396 2108.01,-396 2170.72,-396"/>
<polygon fill="black" stroke="black" points="2170.87,-399.5 2180.87,-396 2170.87,-392.5 2170.87,-399.5"/>
<text text-anchor="middle" x="2071" y="-399.8" font-family="Times,serif" font-size="14.00">21</text>
</g>
<!-- sq_getenv -->
<g id="node24" class="node"><title>sq_getenv</title>
<text text-anchor="middle" x="1902" y="-337" font-family="Microsoft Yahei" font-size="20.00">sq_getenv</text>
</g>
<!-- sq_info&#45;&gt;sq_getenv -->
<g id="edge23" class="edge"><title>sq_info&#45;&gt;sq_getenv</title>
<path fill="none" stroke="black" d="M1617.76,-342C1672.28,-342 1766.1,-342 1830.73,-342"/>
<polygon fill="black" stroke="black" points="1830.85,-345.5 1840.85,-342 1830.85,-338.5 1830.85,-345.5"/>
<text text-anchor="middle" x="1733" y="-345.8" font-family="Times,serif" font-size="14.00">23</text>
</g>
<!-- sq_cmnd -->
<g id="node26" class="node"><title>sq_cmnd</title>
<text text-anchor="middle" x="1902" y="-283" font-family="Microsoft Yahei" font-size="20.00">sq_cmnd</text>
</g>
<!-- sq_prepare&#45;&gt;sq_cmnd -->
<g id="edge25" class="edge"><title>sq_prepare&#45;&gt;sq_cmnd</title>
<path fill="none" stroke="black" d="M1637.83,-288C1695.77,-288 1780.74,-288 1838.32,-288"/>
<polygon fill="black" stroke="black" points="1838.39,-291.5 1848.39,-288 1838.39,-284.5 1838.39,-291.5"/>
<text text-anchor="middle" x="1733" y="-291.8" font-family="Times,serif" font-size="14.00">25</text>
</g>
<!-- mksdb -->
<g id="node27" class="node"><title>mksdb</title>
<text text-anchor="middle" x="2233" y="-337" font-family="Microsoft Yahei" font-size="20.00">mksdb</text>
</g>
<!-- sq_cmnd&#45;&gt;mksdb -->
<g id="edge26" class="edge"><title>sq_cmnd&#45;&gt;mksdb</title>
<path fill="none" stroke="black" d="M1955.86,-296.676C2017.67,-306.822 2119.31,-323.504 2180.53,-333.551"/>
<polygon fill="black" stroke="black" points="2180.29,-337.06 2190.73,-335.226 2181.43,-330.152 2180.29,-337.06"/>
<text text-anchor="middle" x="2071" y="-319.8" font-family="Times,serif" font-size="14.00">26</text>
</g>
<!-- sqcmd -->
<g id="node28" class="node"><title>sqcmd</title>
<text text-anchor="middle" x="2233" y="-283" font-family="Microsoft Yahei" font-size="20.00">sqcmd</text>
</g>
<!-- sq_cmnd&#45;&gt;sqcmd -->
<g id="edge27" class="edge"><title>sq_cmnd&#45;&gt;sqcmd</title>
<path fill="none" stroke="black" d="M1955.86,-288C2017.85,-288 2119.88,-288 2181.03,-288"/>
<polygon fill="black" stroke="black" points="2181.22,-291.5 2191.22,-288 2181.22,-284.5 2181.22,-291.5"/>
<text text-anchor="middle" x="2071" y="-291.8" font-family="Times,serif" font-size="14.00">27</text>
</g>
<!-- parsecmd -->
<g id="node29" class="node"><title>parsecmd</title>
<text text-anchor="middle" x="2558" y="-283" font-family="Microsoft Yahei" font-size="20.00">parsecmd</text>
</g>
<!-- sqcmd&#45;&gt;parsecmd -->
<g id="edge28" class="edge"><title>sqcmd&#45;&gt;parsecmd</title>
<path fill="none" stroke="black" d="M2274.58,-288C2328.46,-288 2424.35,-288 2489.29,-288"/>
<polygon fill="black" stroke="black" points="2489.43,-291.5 2499.43,-288 2489.43,-284.5 2489.43,-291.5"/>
<text text-anchor="middle" x="2395" y="-291.8" font-family="Times,serif" font-size="14.00">28</text>
</g>
<!-- spparse -->
<g id="node30" class="node"><title>spparse</title>
<text text-anchor="middle" x="2918" y="-283" font-family="Microsoft Yahei" font-size="20.00">spparse</text>
</g>
<!-- parsecmd&#45;&gt;spparse -->
<g id="edge29" class="edge"><title>parsecmd&#45;&gt;spparse</title>
<path fill="none" stroke="black" d="M2616.52,-288C2683.12,-288 2792.21,-288 2859.01,-288"/>
<polygon fill="black" stroke="black" points="2859.36,-291.5 2869.36,-288 2859.36,-284.5 2859.36,-291.5"/>
<text text-anchor="middle" x="2721" y="-291.8" font-family="Times,serif" font-size="14.00">29</text>
</g>
<!-- excommand -->
<g id="node32" class="node"><title>excommand</title>
<text text-anchor="middle" x="1902" y="-229" font-family="Microsoft Yahei" font-size="20.00">excommand</text>
</g>
<!-- sq_execute&#45;&gt;excommand -->
<g id="edge31" class="edge"><title>sq_execute&#45;&gt;excommand</title>
<path fill="none" stroke="black" d="M1639.39,-234C1691.41,-234 1764.47,-234 1820.16,-234"/>
<polygon fill="black" stroke="black" points="1820.35,-237.5 1830.35,-234 1820.35,-230.5 1820.35,-237.5"/>
<text text-anchor="middle" x="1733" y="-237.8" font-family="Times,serif" font-size="14.00">31</text>
</g>
<!-- sqopendb -->
<g id="node33" class="node"><title>sqopendb</title>
<text text-anchor="middle" x="2233" y="-229" font-family="Microsoft Yahei" font-size="20.00">sqopendb</text>
</g>
<!-- excommand&#45;&gt;sqopendb -->
<g id="edge32" class="edge"><title>excommand&#45;&gt;sqopendb</title>
<path fill="none" stroke="black" d="M1973.58,-234C2030.19,-234 2109.12,-234 2164.82,-234"/>
<polygon fill="black" stroke="black" points="2164.94,-237.5 2174.94,-234 2164.94,-230.5 2164.94,-237.5"/>
<text text-anchor="middle" x="2071" y="-237.8" font-family="Times,serif" font-size="14.00">32</text>
</g>
<!-- find_db -->
<g id="node34" class="node"><title>find_db</title>
<text text-anchor="middle" x="2558" y="-229" font-family="Microsoft Yahei" font-size="20.00">find_db</text>
</g>
<!-- sqopendb&#45;&gt;find_db -->
<g id="edge33" class="edge"><title>sqopendb&#45;&gt;find_db</title>
<path fill="none" stroke="black" d="M2291,-234C2350.46,-234 2443.03,-234 2501.8,-234"/>
<polygon fill="black" stroke="black" points="2502.01,-237.5 2512.01,-234 2502.01,-230.5 2502.01,-237.5"/>
<text text-anchor="middle" x="2395" y="-237.8" font-family="Times,serif" font-size="14.00">33</text>
</g>
<!-- dbopen -->
<g id="node35" class="node"><title>dbopen</title>
<text text-anchor="middle" x="2918" y="-229" font-family="Microsoft Yahei" font-size="20.00">dbopen</text>
</g>
<!-- find_db&#45;&gt;dbopen -->
<g id="edge34" class="edge"><title>find_db&#45;&gt;dbopen</title>
<path fill="none" stroke="black" d="M2603.62,-234C2668.82,-234 2790.1,-234 2861.15,-234"/>
<polygon fill="black" stroke="black" points="2861.25,-237.5 2871.25,-234 2861.25,-230.5 2861.25,-237.5"/>
<text text-anchor="middle" x="2721" y="-237.8" font-family="Times,serif" font-size="14.00">34</text>
</g>
<!-- ddopen -->
<g id="node36" class="node"><title>ddopen</title>
<text text-anchor="middle" x="3271" y="-229" font-family="Microsoft Yahei" font-size="20.00">ddopen</text>
</g>
<!-- dbopen&#45;&gt;ddopen -->
<g id="edge35" class="edge"><title>dbopen&#45;&gt;ddopen</title>
<path fill="none" stroke="black" d="M2964.53,-234C3028.48,-234 3144.84,-234 3214.01,-234"/>
<polygon fill="black" stroke="black" points="3214.28,-237.5 3224.28,-234 3214.27,-230.5 3214.28,-237.5"/>
<text text-anchor="middle" x="3115" y="-237.8" font-family="Times,serif" font-size="14.00">35</text>
</g>
<!-- sqisdbopen -->
<g id="node37" class="node"><title>sqisdbopen</title>
<text text-anchor="middle" x="3590" y="-229" font-family="Microsoft Yahei" font-size="20.00">sqisdbopen</text>
</g>
<!-- ddopen&#45;&gt;sqisdbopen -->
<g id="edge36" class="edge"><title>ddopen&#45;&gt;sqisdbopen</title>
<path fill="none" stroke="black" d="M3317.76,-234C3368.81,-234 3452.23,-234 3513.09,-234"/>
<polygon fill="black" stroke="black" points="3513.42,-237.5 3523.42,-234 3513.42,-230.5 3513.42,-237.5"/>
<text text-anchor="middle" x="3427" y="-237.8" font-family="Times,serif" font-size="14.00">36</text>
</g>
<!-- isdbopen -->
<g id="node38" class="node"><title>isdbopen</title>
<text text-anchor="middle" x="3911" y="-229" font-family="Microsoft Yahei" font-size="20.00">isdbopen</text>
</g>
<!-- sqisdbopen&#45;&gt;isdbopen -->
<g id="edge37" class="edge"><title>sqisdbopen&#45;&gt;isdbopen</title>
<path fill="none" stroke="black" d="M3656.71,-234C3711.97,-234 3790.52,-234 3845.45,-234"/>
<polygon fill="black" stroke="black" points="3845.77,-237.5 3855.76,-234 3845.76,-230.5 3845.77,-237.5"/>
<text text-anchor="middle" x="3753" y="-237.8" font-family="Times,serif" font-size="14.00">37</text>
</g>
<!-- rsdbopen -->
<g id="node39" class="node"><title>rsdbopen</title>
<text text-anchor="middle" x="4210" y="-229" font-family="Microsoft Yahei" font-size="20.00">rsdbopen</text>
</g>
<!-- isdbopen&#45;&gt;rsdbopen -->
<g id="edge38" class="edge"><title>isdbopen&#45;&gt;rsdbopen</title>
<path fill="none" stroke="black" d="M3966.13,-234C4016.19,-234 4090.69,-234 4143.96,-234"/>
<polygon fill="black" stroke="black" points="4143.99,-237.5 4153.99,-234 4143.99,-230.5 4143.99,-237.5"/>
<text text-anchor="middle" x="4069" y="-237.8" font-family="Times,serif" font-size="14.00">38</text>
</g>
<!-- rsstart -->
<g id="node40" class="node"><title>rsstart</title>
<text text-anchor="middle" x="4472" y="-229" font-family="Microsoft Yahei" font-size="20.00">rsstart</text>
</g>
<!-- rsdbopen&#45;&gt;rsstart -->
<g id="edge39" class="edge"><title>rsdbopen&#45;&gt;rsstart</title>
<path fill="none" stroke="black" d="M4266.14,-234C4311.68,-234 4375.81,-234 4420.13,-234"/>
<polygon fill="black" stroke="black" points="4420.39,-237.5 4430.39,-234 4420.39,-230.5 4420.39,-237.5"/>
<text text-anchor="middle" x="4351" y="-237.8" font-family="Times,serif" font-size="14.00">39</text>
</g>
<!-- kposition -->
<g id="node41" class="node"><title>kposition</title>
<text text-anchor="middle" x="4727" y="-229" font-family="Microsoft Yahei" font-size="20.00">kposition</text>
</g>
<!-- rsstart&#45;&gt;kposition -->
<g id="edge40" class="edge"><title>rsstart&#45;&gt;kposition</title>
<path fill="none" stroke="black" d="M4513.65,-234C4553.52,-234 4614.92,-234 4661.47,-234"/>
<polygon fill="black" stroke="black" points="4661.76,-237.5 4671.76,-234 4661.76,-230.5 4661.76,-237.5"/>
<text text-anchor="middle" x="4593" y="-237.8" font-family="Times,serif" font-size="14.00">40</text>
</g>
<!-- btsearch -->
<g id="node42" class="node"><title>btsearch</title>
<text text-anchor="middle" x="4993" y="-229" font-family="Microsoft Yahei" font-size="20.00">btsearch</text>
</g>
<!-- kposition&#45;&gt;btsearch -->
<g id="edge41" class="edge"><title>kposition&#45;&gt;btsearch</title>
<path fill="none" stroke="black" d="M4782.06,-234C4825.03,-234 4885.16,-234 4930.06,-234"/>
<polygon fill="black" stroke="black" points="4930.26,-237.5 4940.26,-234 4930.26,-230.5 4930.26,-237.5"/>
<text text-anchor="middle" x="4861" y="-237.8" font-family="Times,serif" font-size="14.00">41</text>
</g>
<!-- destroy_session -->
<g id="node44" class="node"><title>destroy_session</title>
<text text-anchor="middle" x="1902" y="-169" font-family="Microsoft Yahei" font-size="20.00">destroy_session</text>
</g>
<!-- sq_exit&#45;&gt;destroy_session -->
<g id="edge43" class="edge"><title>sq_exit&#45;&gt;destroy_session</title>
<path fill="none" stroke="black" d="M1617.76,-178.331C1664.66,-177.614 1740.66,-176.452 1802.13,-175.512"/>
<polygon fill="black" stroke="black" points="1802.31,-179.009 1812.26,-175.357 1802.21,-172.01 1802.31,-179.009"/>
<text text-anchor="middle" x="1733" y="-179.8" font-family="Times,serif" font-size="14.00">43</text>
</g>
<!-- sqscb_cleanup -->
<g id="node45" class="node"><title>sqscb_cleanup</title>
<text text-anchor="middle" x="2233" y="-152" font-family="Microsoft Yahei" font-size="20.00">sqscb_cleanup</text>
</g>
<!-- destroy_session&#45;&gt;sqscb_cleanup -->
<g id="edge44" class="edge"><title>destroy_session&#45;&gt;sqscb_cleanup</title>
<path fill="none" stroke="black" d="M1991.6,-169.422C2037.43,-167.054 2093.34,-164.165 2139.7,-161.769"/>
<polygon fill="black" stroke="black" points="2139.94,-165.262 2149.74,-161.25 2139.57,-158.271 2139.94,-165.262"/>
<text text-anchor="middle" x="2071" y="-168.8" font-family="Times,serif" font-size="14.00">44</text>
</g>
<!-- doreleasesdb -->
<g id="node46" class="node"><title>doreleasesdb</title>
<text text-anchor="middle" x="2558" y="-175" font-family="Microsoft Yahei" font-size="20.00">doreleasesdb</text>
</g>
<!-- sqscb_cleanup&#45;&gt;doreleasesdb -->
<g id="edge45" class="edge"><title>sqscb_cleanup&#45;&gt;doreleasesdb</title>
<path fill="none" stroke="black" d="M2316.34,-162.863C2363.81,-166.243 2423.39,-170.486 2471.39,-173.904"/>
<polygon fill="black" stroke="black" points="2471.23,-177.401 2481.45,-174.62 2471.72,-170.419 2471.23,-177.401"/>
<text text-anchor="middle" x="2395" y="-171.8" font-family="Times,serif" font-size="14.00">45</text>
</g>
<!-- rmtemps -->
<g id="node48" class="node"><title>rmtemps</title>
<text text-anchor="middle" x="2558" y="-121" font-family="Microsoft Yahei" font-size="20.00">rmtemps</text>
</g>
<!-- sqscb_cleanup&#45;&gt;rmtemps -->
<g id="edge47" class="edge"><title>sqscb_cleanup&#45;&gt;rmtemps</title>
<path fill="none" stroke="black" d="M2316.34,-149.097C2371.42,-143.811 2442.83,-136.958 2493.51,-132.093"/>
<polygon fill="black" stroke="black" points="2494.06,-135.557 2503.68,-131.117 2493.39,-128.589 2494.06,-135.557"/>
<text text-anchor="middle" x="2395" y="-144.8" font-family="Times,serif" font-size="14.00">47</text>
</g>
<!-- ascAbort -->
<g id="node54" class="node"><title>ascAbort</title>
<text text-anchor="middle" x="2558" y="-44" font-family="Microsoft Yahei" font-size="20.00">ascAbort</text>
</g>
<!-- sqscb_cleanup&#45;&gt;ascAbort -->
<g id="edge53" class="edge"><title>sqscb_cleanup&#45;&gt;ascAbort</title>
<path fill="none" stroke="black" d="M2288.06,-138.923C2345.05,-119.868 2434.71,-89.8897 2494.65,-69.8487"/>
<polygon fill="black" stroke="black" points="2496,-73.0881 2504.37,-66.5976 2493.78,-66.4494 2496,-73.0881"/>
<text text-anchor="middle" x="2395" y="-106.8" font-family="Times,serif" font-size="14.00">53</text>
</g>
<!-- closesdb -->
<g id="node47" class="node"><title>closesdb</title>
<text text-anchor="middle" x="2918" y="-175" font-family="Microsoft Yahei" font-size="20.00">closesdb</text>
</g>
<!-- doreleasesdb&#45;&gt;closesdb -->
<g id="edge46" class="edge"><title>doreleasesdb&#45;&gt;closesdb</title>
<path fill="none" stroke="black" d="M2634.92,-180C2700.31,-180 2793.53,-180 2854.64,-180"/>
<polygon fill="black" stroke="black" points="2854.91,-183.5 2864.91,-180 2854.91,-176.5 2854.91,-183.5"/>
<text text-anchor="middle" x="2721" y="-183.8" font-family="Times,serif" font-size="14.00">46</text>
</g>
<!-- udr_sapi_prep -->
<g id="node49" class="node"><title>udr_sapi_prep</title>
<text text-anchor="middle" x="2918" y="-121" font-family="Microsoft Yahei" font-size="20.00">udr_sapi_prep</text>
</g>
<!-- rmtemps&#45;&gt;udr_sapi_prep -->
<g id="edge48" class="edge"><title>rmtemps&#45;&gt;udr_sapi_prep</title>
<path fill="none" stroke="black" d="M2612.21,-126C2669.09,-126 2760.23,-126 2828.05,-126"/>
<polygon fill="black" stroke="black" points="2828.3,-129.5 2838.3,-126 2828.3,-122.5 2828.3,-129.5"/>
<text text-anchor="middle" x="2721" y="-129.8" font-family="Times,serif" font-size="14.00">48</text>
</g>
<!-- udr_sapi_cleanup -->
<g id="node50" class="node"><title>udr_sapi_cleanup</title>
<text text-anchor="middle" x="2918" y="-67" font-family="Microsoft Yahei" font-size="20.00">udr_sapi_cleanup</text>
</g>
<!-- rmtemps&#45;&gt;udr_sapi_cleanup -->
<g id="edge49" class="edge"><title>rmtemps&#45;&gt;udr_sapi_cleanup</title>
<path fill="none" stroke="black" d="M2612.21,-117.974C2664.46,-110.093 2745.61,-97.8518 2811.05,-87.9817"/>
<polygon fill="black" stroke="black" points="2811.63,-91.4337 2820.99,-86.4813 2810.58,-84.512 2811.63,-91.4337"/>
<text text-anchor="middle" x="2721" y="-105.8" font-family="Times,serif" font-size="14.00">49</text>
</g>
<!-- relsdbmem_3 -->
<g id="node51" class="node"><title>relsdbmem_3</title>
<text text-anchor="middle" x="3271" y="-67" font-family="Microsoft Yahei" font-size="20.00">relsdbmem_3</text>
</g>
<!-- udr_sapi_cleanup&#45;&gt;relsdbmem_3 -->
<g id="edge50" class="edge"><title>udr_sapi_cleanup&#45;&gt;relsdbmem_3</title>
<path fill="none" stroke="black" d="M3015.38,-72C3068.08,-72 3132.82,-72 3183.84,-72"/>
<polygon fill="black" stroke="black" points="3183.85,-75.5001 3193.85,-72 3183.85,-68.5001 3183.85,-75.5001"/>
<text text-anchor="middle" x="3115" y="-75.8" font-family="Times,serif" font-size="14.00">50</text>
</g>
<!-- aud_sqdbclose -->
<g id="node52" class="node"><title>aud_sqdbclose</title>
<text text-anchor="middle" x="3590" y="-67" font-family="Microsoft Yahei" font-size="20.00">aud_sqdbclose</text>
</g>
<!-- relsdbmem_3&#45;&gt;aud_sqdbclose -->
<g id="edge51" class="edge"><title>relsdbmem_3&#45;&gt;aud_sqdbclose</title>
<path fill="none" stroke="black" d="M3348.33,-72C3392.79,-72 3449.18,-72 3496.2,-72"/>
<polygon fill="black" stroke="black" points="3496.38,-75.5001 3506.38,-72 3496.38,-68.5001 3496.38,-75.5001"/>
<text text-anchor="middle" x="3427" y="-75.8" font-family="Times,serif" font-size="14.00">51</text>
</g>
<!-- sqdbclose -->
<g id="node53" class="node"><title>sqdbclose</title>
<text text-anchor="middle" x="3911" y="-67" font-family="Microsoft Yahei" font-size="20.00">sqdbclose</text>
</g>
<!-- aud_sqdbclose&#45;&gt;sqdbclose -->
<g id="edge52" class="edge"><title>aud_sqdbclose&#45;&gt;sqdbclose</title>
<path fill="none" stroke="black" d="M3673.57,-72C3725.61,-72 3792.04,-72 3841.22,-72"/>
<polygon fill="black" stroke="black" points="3841.44,-75.5001 3851.44,-72 3841.44,-68.5001 3841.44,-75.5001"/>
<text text-anchor="middle" x="3753" y="-75.8" font-family="Times,serif" font-size="14.00">52</text>
</g>
<!-- cmDiscon -->
<g id="node55" class="node"><title>cmDiscon</title>
<text text-anchor="middle" x="2918" y="-13" font-family="Microsoft Yahei" font-size="20.00">cmDiscon</text>
</g>
<!-- ascAbort&#45;&gt;cmDiscon -->
<g id="edge54" class="edge"><title>ascAbort&#45;&gt;cmDiscon</title>
<path fill="none" stroke="black" d="M2611.82,-44.4258C2674.91,-38.9631 2780.54,-29.8165 2849.49,-23.8457"/>
<polygon fill="black" stroke="black" points="2850.15,-27.302 2859.81,-22.9522 2849.55,-20.3281 2850.15,-27.302"/>
<text text-anchor="middle" x="2721" y="-39.8" font-family="Times,serif" font-size="14.00">54</text>
</g>
<!-- pfDiscon -->
<g id="node56" class="node"><title>pfDiscon</title>
<text text-anchor="middle" x="3271" y="-13" font-family="Microsoft Yahei" font-size="20.00">pfDiscon</text>
</g>
<!-- cmDiscon&#45;&gt;pfDiscon -->
<g id="edge55" class="edge"><title>cmDiscon&#45;&gt;pfDiscon</title>
<path fill="none" stroke="black" d="M2976.18,-18C3039.7,-18 3141.94,-18 3207.52,-18"/>
<polygon fill="black" stroke="black" points="3207.72,-21.5001 3217.72,-18 3207.72,-14.5001 3207.72,-21.5001"/>
<text text-anchor="middle" x="3115" y="-21.8" font-family="Times,serif" font-size="14.00">55</text>
</g>
<!-- slSQIdiscon -->
<g id="node57" class="node"><title>slSQIdiscon</title>
<text text-anchor="middle" x="3590" y="-13" font-family="Microsoft Yahei" font-size="20.00">slSQIdiscon</text>
</g>
<!-- pfDiscon&#45;&gt;slSQIdiscon -->
<g id="edge56" class="edge"><title>pfDiscon&#45;&gt;slSQIdiscon</title>
<path fill="none" stroke="black" d="M3324.35,-18C3375.61,-18 3454.28,-18 3512.54,-18"/>
<polygon fill="black" stroke="black" points="3512.81,-21.5001 3522.81,-18 3512.81,-14.5001 3512.81,-21.5001"/>
<text text-anchor="middle" x="3427" y="-21.8" font-family="Times,serif" font-size="14.00">56</text>
</g>
<!-- tlDiscon -->
<g id="node58" class="node"><title>tlDiscon</title>
<text text-anchor="middle" x="3911" y="-13" font-family="Microsoft Yahei" font-size="20.00">tlDiscon</text>
</g>
<!-- slSQIdiscon&#45;&gt;tlDiscon -->
<g id="edge57" class="edge"><title>slSQIdiscon&#45;&gt;tlDiscon</title>
<path fill="none" stroke="black" d="M3657.1,-18C3714.02,-18 3795.44,-18 3850.39,-18"/>
<polygon fill="black" stroke="black" points="3850.67,-21.5001 3860.67,-18 3850.67,-14.5001 3850.67,-21.5001"/>
<text text-anchor="middle" x="3753" y="-21.8" font-family="Times,serif" font-size="14.00">57</text>
</g>
<!-- discsocket -->
<g id="node59" class="node"><title>discsocket</title>
<text text-anchor="middle" x="4210" y="-13" font-family="Microsoft Yahei" font-size="20.00">discsocket</text>
</g>
<!-- tlDiscon&#45;&gt;discsocket -->
<g id="edge58" class="edge"><title>tlDiscon&#45;&gt;discsocket</title>
<path fill="none" stroke="black" d="M3961.04,-18C4009.1,-18 4082.89,-18 4137.48,-18"/>
<polygon fill="black" stroke="black" points="4137.79,-21.5001 4147.78,-18 4137.78,-14.5001 4137.79,-21.5001"/>
<text text-anchor="middle" x="4069" y="-21.8" font-family="Times,serif" font-size="14.00">58</text>
</g>
</g>
</svg>
